<?xml version="1.0" encoding="UTF-8"?>
<svg width="32" height="32" viewBox="0 0 32 32" fill="none" xmlns="http://www.w3.org/2000/svg">
  <!-- Main square with gradient -->
  <rect width="32" height="32" rx="8" fill="url(#gradient)" />
  
  <!-- Letter S -->
  <path d="M22 12C22 10.8954 21.1046 10 20 10H12C10.8954 10 10 10.8954 10 12C10 13.1046 10.8954 14 12 14H20C21.1046 14 22 14.8954 22 16C22 17.1046 21.1046 18 20 18H12C10.8954 18 10 18.8954 10 20C10 21.1046 10.8954 22 12 22H20C21.1046 22 22 21.1046 22 20" stroke="white" stroke-width="2" stroke-linecap="round" stroke-linejoin="round"/>
  
  <!-- Green dot -->
  <circle cx="24" cy="24" r="4" fill="#22C55E" stroke="white" stroke-width="2"/>
  
  <!-- Gradient definition -->
  <defs>
    <linearGradient id="gradient" x1="0" y1="0" x2="32" y2="32" gradientUnits="userSpaceOnUse">
      <stop offset="0%" stop-color="#2563EB"/>
      <stop offset="100%" stop-color="#9333EA"/>
    </linearGradient>
  </defs>
</svg> 